<svg xmlns="http://www.w3.org/2000/svg">
  <symbol id="i-bolt" viewBox="0 0 24 24"><path d="M13.5 2 5 13h6l-.5 9L19 10h-6l.5-8Z"/></symbol>
  <symbol id="i-shield" viewBox="0 0 24 24"><path d="M12 2 4 5v6c0 5.2 3.2 9 8 11 4.8-2 8-5.8 8-11V5l-8-3Zm-1.1 14.2-3.4-3.4 1.5-1.5 1.9 1.9 4.3-4.3 1.5 1.5-5.8 5.8Z"/></symbol>
  <symbol id="i-doc" viewBox="0 0 24 24"><path d="M5 2h10l4 4v16H5V2Zm9 1.8V7h3.2L14 3.8ZM8 11v2h8v-2H8Zm0 4v2h8v-2H8Z"/></symbol>
  <symbol id="i-building" viewBox="0 0 24 24"><path d="M3 21h18v-2h-2V3H9v5H5v11H3v2Zm8-16h6v14h-2v-3h-2v3h-2V5ZM7 10h2v2H7v-2Zm0 4h2v2H7v-2Zm6-6h2v2h-2V8Zm0 4h2v2h-2v-2Z"/></symbol>
  <symbol id="i-sun" viewBox="0 0 24 24"><path d="M11 1h2v3h-2V1Zm0 19h2v3h-2v-3ZM1 11h3v2H1v-2Zm19 0h3v2h-3v-2ZM4.2 5.6l1.4-1.4 2.1 2.1-1.4 1.4-2.1-2.1Zm12.1 12.1 1.4-1.4 2.1 2.1-1.4 1.4-2.1-2.1ZM4.2 18.4l2.1-2.1 1.4 1.4-2.1 2.1-1.4-1.4ZM16.3 6.3l2.1-2.1 1.4 1.4-2.1 2.1-1.4-1.4ZM12 6a6 6 0 1 1 0 12 6 6 0 0 1 0-12Z"/></symbol>
  <symbol id="i-battery" viewBox="0 0 24 24"><path d="M5 5h14v4h2v6h-2v4H5V5Zm2 2v10h10V7H7Zm2 3h2V8h2v2h2v2h-2v2h-2v-2H9v-2Z"/></symbol>
  <symbol id="i-generator" viewBox="0 0 24 24"><path d="M3 5h18v14H3V5Zm2 2v10h14V7H5Zm3 2h5v2H8V9Zm0 4h5v2H8v-2Zm8-3a2 2 0 1 1 0 4 2 2 0 0 1 0-4Z"/></symbol>
  <symbol id="i-network" viewBox="0 0 24 24"><path d="M10 2h4v4h-4V2ZM3 18h4v4H3v-4Zm14 0h4v4h-4v-4ZM5 16v-5h6V8h2v3h6v5h-2v-3h-4v3h-2v-3H7v3H5Z"/></symbol>
  <symbol id="i-clock" viewBox="0 0 24 24"><path d="M12 2a10 10 0 1 1 0 20 10 10 0 0 1 0-20Zm0 2a8 8 0 1 0 0 16 8 8 0 0 0 0-16Zm-1 3h2v5.2l3.4 2-1 1.7-4.4-2.6V7Z"/></symbol>
  <symbol id="i-money" viewBox="0 0 24 24"><path d="M3 5h18v14H3V5Zm2 2v10h14V7H5Zm7 1c2 0 3.5 1.1 3.5 2.6h-2c0-.5-.6-.9-1.5-.9s-1.4.3-1.4.8c0 .4.5.7 1.8 1 2.1.5 3.2 1.3 3.2 2.8 0 1.4-1 2.4-2.6 2.7v1h-2v-1c-1.8-.3-2.8-1.3-2.8-2.8h2c0 .7.7 1.1 1.8 1.1 1 0 1.6-.3 1.6-.9 0-.5-.5-.8-1.9-1.1-2-.5-3.1-1.2-3.1-2.7 0-1.3.9-2.3 2.4-2.6V7h2v1Z"/></symbol>
  <symbol id="i-alert" viewBox="0 0 24 24"><path d="M12 2 1 21h22L12 2Zm-1 6h2v7h-2V8Zm0 9h2v2h-2v-2Z"/></symbol>
  <symbol id="i-check" viewBox="0 0 24 24"><path d="M9.2 18.2 3.5 12.5l2.1-2.1 3.6 3.6 9.2-9.2 2.1 2.1-11.3 11.3Z"/></symbol>
  <symbol id="i-tools" viewBox="0 0 24 24"><path d="m14.7 6.3 3-3a5 5 0 0 0-6.3 6.3L3 18l3 3 8.4-8.4a5 5 0 0 0 6.3-6.3l-3 3-3-3Z"/></symbol>
  <symbol id="i-server" viewBox="0 0 24 24"><path d="M4 3h16v6H4V3Zm2 2v2h12V5H6Zm-2 6h16v6H4v-6Zm2 2v2h12v-2H6Zm1-7h2v1H7V6Zm0 8h2v1H7v-1Zm-3 5h16v2H4v-2Z"/></symbol>
  <symbol id="i-question" viewBox="0 0 24 24"><path d="M12 2a10 10 0 1 1 0 20 10 10 0 0 1 0-20Zm0 2a8 8 0 1 0 0 16 8 8 0 0 0 0-16Zm0 3c2.3 0 4 1.4 4 3.4 0 1.5-.8 2.4-2.1 3.2-.8.5-.9.8-.9 1.4h-2c0-1.4.5-2.1 1.8-2.9.9-.5 1.2-.9 1.2-1.6 0-.9-.8-1.5-2-1.5-1.1 0-2 .6-2.1 1.8h-2C8 8.5 9.7 7 12 7Zm-1 10h2v2h-2v-2Z"/></symbol>
  <symbol id="i-roof" viewBox="0 0 24 24"><path d="M2 11 12 3l10 8-1.3 1.6L19 11.2V21H5v-9.8l-1.7 1.4L2 11Zm5 0v8h10v-8l-5-4-5 4Z"/></symbol>
  <symbol id="i-fire" viewBox="0 0 24 24"><path d="M13.4 2c.5 4-2.6 5.3-2.6 8 0 1.2.7 2.1 1.7 2.1 1.5 0 2.4-1.4 2.2-3.4 3 2.1 4.8 4.8 4.8 7.7 0 4.1-3.3 6.6-7.5 6.6s-7.5-2.5-7.5-6.6c0-3.5 2-6.8 5.5-9.5-.2 2.7.6 4 1.6 4 .8 0 1.2-.7 1.2-1.5 0-2-1.8-3.6.6-7.4Z"/></symbol>
  <symbol id="i-scale" viewBox="0 0 24 24"><path d="M11 3h2v3h6l3 5h-2l-2-3.3-2 3.3h-2l3-5h-4v12h5v2H6v-2h5V6H7l3 5H8L6 7.7 4 11H2l3-5h6V3Z"/></symbol>
  <symbol id="i-target" viewBox="0 0 24 24"><path d="M12 2a10 10 0 1 0 10 10h-2a8 8 0 1 1-8-8V2Zm0 5a5 5 0 1 0 5 5h-2a3 3 0 1 1-3-3V7Zm8-5v3h-3l-6 6 2 2 6-6h3V2h-2Z"/></symbol>
  <symbol id="i-eye" viewBox="0 0 24 24"><path d="M12 5C6.5 5 2.2 8.5 1 12c1.2 3.5 5.5 7 11 7s9.8-3.5 11-7c-1.2-3.5-5.5-7-11-7Zm0 12a5 5 0 1 1 0-10 5 5 0 0 1 0 10Zm0-8a3 3 0 1 0 0 6 3 3 0 0 0 0-6Z"/></symbol>
  <symbol id="i-users" viewBox="0 0 24 24"><path d="M8 11a4 4 0 1 0 0-8 4 4 0 0 0 0 8Zm8-1a3 3 0 1 0 0-6 3 3 0 0 0 0 6ZM1 21v-3c0-3.3 3.1-6 7-6s7 2.7 7 6v3H1Zm15 0v-3c0-1.9-.8-3.7-2.2-5 1-.6 2.1-1 3.2-1 3.3 0 6 2.2 6 5v4h-7Z"/></symbol>
  <symbol id="i-link" viewBox="0 0 24 24"><path d="M10.6 13.4a2 2 0 0 0 2.8 0l3-3a2 2 0 0 0-2.8-2.8l-1.1 1.1-1.4-1.4 1.1-1.1a4 4 0 0 1 5.6 5.6l-3 3a4 4 0 0 1-5.6 0l1.4-1.4Zm2.8-2.8a2 2 0 0 0-2.8 0l-3 3a2 2 0 0 0 2.8 2.8l1.1-1.1 1.4 1.4-1.1 1.1a4 4 0 1 1-5.6-5.6l3-3a4 4 0 0 1 5.6 0l-1.4 1.4Z"/></symbol>
</svg>
